<svg width="326" height="12" viewBox="0 0 326 12" fill="none" xmlns="http://www.w3.org/2000/svg">
<path fill-rule="evenodd" clip-rule="evenodd" d="M7.48109 9.76763C14.3786 9.03527 32.5055 8.99865 81.7134 8.92541C158.553 8.81556 219.537 8.00997 236.486 6.83819C237.832 6.72833 130.122 5.92274 119.061 6.50863C101.817 7.4607 19.4675 6.6551 2.89673 5.55656C-1.81375 5.26361 -0.0473008 4.2383 3.02293 4.0186C7.81751 3.65242 20.6873 3.68904 55.974 3.76228C80.7882 3.79889 278.208 2.95667 299.784 1.45533C311.896 0.613119 319.256 -0.155858 322.621 0.0272322C325.439 0.173704 325.481 0.613119 323.042 1.82151C321.401 2.62711 323.252 3.10315 324.43 3.32285C326.238 3.68904 325.481 4.93405 323.21 5.92274C320.14 7.2776 314.84 7.24098 317.364 5.88612C317.911 5.59317 318.037 4.86081 316.102 5.00729C310.466 5.4467 270.637 8.44938 259.829 8.96203C144.422 14.528 31.7905 10.4634 7.94368 11.8182C-0.509957 12.3309 3.35943 10.207 7.48109 9.76763Z" fill="#78B92B"/>
</svg>
